
mtllib woodBoat (1).mtl

o obj1
v 1.72465718 -0.21609116 0.69046861
v -1.77440858 0.10255694 0.69046861
v -1.80652666 -0.21609116 0.69046861
v -1.41268146 0.10255699 -0.19667375
v 1.35110259 -0.2160912 -0.19667375
v -1.43872595 -0.2160912 -0.19667375
v 1.69545162 0.10255694 0.69046861
v 1.45617878 -2.01422739 0.69046867
v 1.23132253 -1.69557929 -0.19667375
v 1.54223919 -1.69557929 0.69046867
v -1.52264881 -2.01422739 0.69046867
v -1.61491108 -1.69557929 0.69046867
v -1.19784272 -2.01422739 -0.19667375
v 1.14542377 -2.01422739 -0.19667375
v -1.30818319 -1.69557929 -0.19667375
v 1.33840501 0.10255699 -0.19667375
vn 0.71766 -0.53083 0.45076
vn -0.65723 0.58904 0.4702
vn -0.71887 -0.52823 0.45189
vn -0.4229 0.61683 -0.66384
vn 0.45801 -0.59134 -0.66373
vn -0.46868 -0.58262 -0.664
vn 0.66144 0.58577 0.46836
vn 0.58566 -0.63497 0.5038
vn 0.53837 0.53258 -0.65308
vn 0.74895 0.47833 0.45855
vn -0.57817 -0.64039 0.50559
vn -0.75244 0.4726 0.45878
vn -0.36124 -0.65821 -0.66051
vn 0.38642 -0.64704 -0.65728
vn -0.55323 0.51475 -0.65496
vn 0.43639 0.60839 -0.66289
vt 0 0
usemtl mat0
f 1/1/1 2/1/2 3/1/3
f 4/1/4 5/1/5 6/1/6
f 7/1/7 4/1/4 2/1/2
f 3/1/3 5/1/5 1/1/1
f 5/1/5 7/1/7 1/1/1
f 2/1/2 6/1/6 3/1/3
f 8/1/8 9/1/9 10/1/10
f 11/1/11 10/1/10 12/1/12
f 13/1/13 9/1/9 14/1/14
f 13/1/13 8/1/8 11/1/11
f 9/1/9 12/1/12 10/1/10
f 15/1/15 11/1/11 12/1/12
f 1/1/1 7/1/7 2/1/2
f 4/1/4 16/1/16 5/1/5
f 7/1/7 16/1/16 4/1/4
f 3/1/3 6/1/6 5/1/5
f 5/1/5 16/1/16 7/1/7
f 2/1/2 4/1/4 6/1/6
f 8/1/8 14/1/14 9/1/9
f 11/1/11 8/1/8 10/1/10
f 13/1/13 15/1/15 9/1/9
f 13/1/13 14/1/14 8/1/8
f 9/1/9 15/1/15 12/1/12
f 15/1/15 13/1/13 11/1/11
# Vertices: 16, normals: 16, texture coordinates: 1, faces: 24

o obj2
v -0.8297286 3.15696907 -0.11330453
v 0.94849539 2.57985735 -0.18357849
v -1.02304471 2.57985735 -0.18357849
v -0.03727463 -3.8707633 -0.03929368
v -0.92074156 -2.73824883 -0.17502728
v 0.91687739 -2.73824883 -0.17502728
v 1.22423625 -1.85189772 -0.23067141
v -1.42086911 -0.96554685 -0.23067141
v -1.29878545 -1.85189795 -0.23067141
v -1.44978929 -0.07919586 -0.23067141
v 1.34631991 -0.96554673 -0.23067141
v -1.34245324 0.80715519 -0.23067141
v 1.37524009 -0.07919568 -0.23067141
v -1.19385672 1.69350624 -0.23067141
v 1.26790404 0.80715531 -0.23067141
v 1.11930752 1.69350624 -0.23067141
v -1.09967136 3.40470719 0.78998566
v -1.37033534 2.57985735 0.78998566
v -1.19625819 3.46620822 0.78998566
v 1.15980577 -2.58974838 0.78998566
v 1.61014712 -1.85189772 0.78998566
v 1.19795203 -2.73824883 0.78998566
v 1.02512193 3.40470719 0.78998566
v 1.12170887 3.46620822 0.78998566
v -1.34318626 -2.73824883 0.78998566
v -0.03727469 -4.21968985 0.78998566
v -0.03727469 -4.56983137 0.78998566
v -1.68469644 -1.85189795 0.78998566
v -1.23435473 -2.58974838 0.78998566
v -1.8441267 -0.96554685 0.78998566
v -1.54740453 -1.77726364 0.78998566
v 1.47311938 1.69350624 0.78998566
v 1.18469191 2.50908089 0.78998566
v 1.2957859 2.57985735 0.78998566
v 0.75517941 3.15696907 -0.11330453
v -1.54766881 1.69350624 0.78998566
v 1.76957762 -0.96554661 0.78998566
v -1.74172282 0.80715519 0.78998566
v 1.66717339 0.80715531 0.78998566
v 1.80734468 -0.07919568 0.78998566
v -1.88189411 -0.07919586 0.78998566
v 1.47285509 -1.77726364 0.78998566
v -1.25924158 2.50908089 0.78998566
v 1.61899924 -0.96477866 0.78998566
v -1.59967852 0.74833822 0.78998566
v 1.65361881 -0.0641464 0.78998566
v -1.72816825 -0.06414658 0.78998566
v 1.52512884 0.74833834 0.78998566
v -1.6935482 -0.96477878 0.78998566
v 1.18469191 2.50908089 0.69793856
v 1.47285509 -1.77726364 0.69793856
v -1.59967852 0.74833822 0.69793856
v 1.61899924 -0.96477866 0.69793856
v -1.42179632 1.69659579 0.69793856
v -1.42179632 1.69659579 0.78998566
v 1.65361881 -0.0641464 0.69793856
v -1.25924158 2.50908089 0.69793856
v 1.52512884 0.74833834 0.69793856
v 1.34724689 1.69659579 0.78998566
v -1.72816825 -0.06414658 0.69793856
v -1.09967136 3.40470719 0.69793856
v 1.34724689 1.69659579 0.69793856
v -1.6935482 -0.96477878 0.69793856
v 1.02512193 3.40470719 0.69793856
v -0.03727469 -4.21968985 0.69793856
v -1.54740453 -1.77726364 0.69793856
v -1.23435473 -2.58974838 0.69793856
v 1.15980577 -2.58974838 0.69793856
v 1.18469191 2.50908089 0.62575477
v 0.94849539 2.57985735 -0.18357849
v -0.8297286 3.15696907 -0.11330453
v -1.02304471 2.57985735 -0.18357849
v -0.03727463 -3.8707633 -0.03929368
v 0.91687739 -2.73824883 -0.17502728
v -0.92074156 -2.73824883 -0.17502728
v 1.22423625 -1.85189772 -0.23067141
v -1.29878545 -1.85189795 -0.23067141
v -1.42086911 -0.96554685 -0.23067141
v 1.34631991 -0.96554673 -0.23067141
v -1.44978929 -0.07919586 -0.23067141
v 1.37524009 -0.07919568 -0.23067141
v -1.34245324 0.80715519 -0.23067141
v 1.26790404 0.80715531 -0.23067141
v -1.19385672 1.69350624 -0.23067141
v -1.37033534 2.57985735 0.78998566
v -1.09967136 3.40470719 0.78998566
v -1.19625819 3.46620822 0.78998566
v 1.61014712 -1.85189772 0.78998566
v 1.15980577 -2.58974838 0.78998566
v 1.19795203 -2.73824883 0.78998566
v 1.02512193 3.40470719 0.78998566
v 1.12170887 3.46620822 0.78998566
v -1.34318626 -2.73824883 0.78998566
v -0.03727469 -4.21968985 0.78998566
v -1.23435473 -2.58974838 0.78998566
v -1.68469644 -1.85189795 0.78998566
v -1.54740453 -1.77726364 0.78998566
v -0.03727469 -4.56983137 0.78998566
v -1.8441267 -0.96554685 0.78998566
v -1.6935482 -0.96477878 0.78998566
v 1.47311938 1.69350624 0.78998566
v 1.18469191 2.50908089 0.78998566
v 1.34724689 1.69659579 0.78998566
v 1.2957859 2.57985735 0.78998566
v 0.75517941 3.15696907 -0.11330453
v 1.11930752 1.69350624 -0.23067141
v -1.54766881 1.69350624 0.78998566
v 1.76957762 -0.96554661 0.78998566
v -1.74172282 0.80715519 0.78998566
v 1.66717339 0.80715531 0.78998566
v 1.47285509 -1.77726364 0.78998566
v -1.25924158 2.50908089 0.78998566
v 1.80734468 -0.07919568 0.78998566
v 1.61899924 -0.96477866 0.78998566
v -1.59967852 0.74833822 0.78998566
v -1.42179632 1.69659579 0.78998566
v 1.65361881 -0.0641464 0.78998566
v -1.72816825 -0.06414658 0.78998566
v 1.52512884 0.74833834 0.78998566
v -1.88189411 -0.07919586 0.78998566
v 1.18469191 2.50908089 0.69793856
v 1.47285509 -1.77726364 0.69793856
v -1.59967852 0.74833822 0.69793856
v 1.61899924 -0.96477866 0.69793856
v -1.42179632 1.69659579 0.69793856
v 1.65361881 -0.0641464 0.69793856
v -1.25924158 2.50908089 0.69793856
v 1.52512884 0.74833834 0.69793856
v -1.72816825 -0.06414658 0.69793856
v -1.09967136 3.40470719 0.69793856
v 1.34724689 1.69659579 0.69793856
v -1.6935482 -0.96477878 0.69793856
v 1.02512193 3.40470719 0.69793856
v -0.03727469 -4.21968985 0.69793856
v -1.54740453 -1.77726364 0.69793856
v -1.23435473 -2.58974838 0.69793856
v 1.15980577 -2.58974838 0.69793856
v 1.18469191 2.50908089 0.62575477
v -1.25924158 2.50908089 0.62575477
v -1.25924158 2.50908089 0.62575477
vn -0.37546 0.58033 -0.72266
vn 0.56331 0.21411 -0.79802
vn -0.56332 0.21411 -0.79802
vn 0.00711 -0.63924 -0.76897
vn -0.4961 -0.36595 -0.78738
vn 0.55043 -0.37976 -0.74351
vn 0.5761 -0.17494 -0.79844
vn -0.56968 -0.0544 -0.82006
vn -0.57078 -0.17471 -0.8023
vn -0.57403 0.02922 -0.81831
vn 0.56968 -0.0544 -0.82007
vn -0.56863 0.08911 -0.81775
vn 0.57403 0.02922 -0.81831
vn -0.56869 0.121 -0.81361
vn 0.56864 0.08911 -0.81774
vn 0.56869 0.121 -0.8136
vn -0.30111 0.35951 -0.88323
vn -0.55321 0.12794 -0.82316
vn -0.3648 0.41983 -0.83106
vn 0.59184 -0.3238 -0.73816
vn 0.5598 -0.16656 -0.81171
vn 0.52098 -0.30119 -0.79867
vn 0.30112 0.3595 -0.88322
vn 0.3648 0.41984 -0.83106
vn -0.50438 -0.28432 -0.81533
vn -0 -0.34761 -0.93764
vn 0.00449 -0.44565 -0.8952
vn -0.56028 -0.14796 -0.81498
vn -0.59183 -0.32379 -0.73817
vn -0.55921 -0.05971 -0.82687
vn -0.65912 -0.18445 -0.72907
vn 0.56556 0.11204 -0.81706
vn 0.69713 0.13182 -0.70473
vn 0.55321 0.12794 -0.82316
vn 0.37545 0.58033 -0.72267
vn -0.56556 0.11204 -0.81706
vn 0.55921 -0.05971 -0.82687
vn -0.55704 0.09956 -0.8245
vn 0.55704 0.09956 -0.8245
vn 0.5617 0.03136 -0.82675
vn -0.5617 0.03136 -0.82675
vn 0.65912 -0.18446 -0.72907
vn -0.69713 0.13182 -0.70472
vn 0.68667 -0.07459 -0.72313
vn -0.69359 0.11987 -0.71033
vn 0.68255 0.04046 -0.72971
vn -0.68255 0.04046 -0.72971
vn 0.69359 0.11987 -0.71033
vn -0.68667 -0.07459 -0.72313
vn 0.76894 0.53671 -0.34738
vn 0.963 -0.2695 0
vn -0.98539 0.17031 0
vn 0.99415 -0.10798 0
vn -0.98173 0.19028 0
vn -0.69285 0.13429 -0.70846
vn 0.99825 0.05918 0
vn -0.76894 0.53671 -0.34737
vn 0.98539 0.17031 0
vn 0.69286 0.13429 -0.70846
vn -0.99825 0.05918 0
vn -0.51975 0.62054 -0.58719
vn 0.98173 0.19028 0
vn -0.99415 -0.10798 0
vn 0.51975 0.62054 -0.58718
vn 1E-05 -1 0
vn -0.963 -0.2695 0
vn -0.87729 -0.47997 0
vn 0.87729 -0.47997 0
vn 0 1 0
vn -0.56331 -0.21411 0.79802
vn 0.37546 -0.58033 0.72266
vn 0.56331 -0.21411 0.79802
vn -0.00711 0.63924 0.76897
vn -0.55043 0.37976 0.74351
vn 0.4961 0.36595 0.78738
vn -0.5761 0.17494 0.79844
vn 0.57078 0.17471 0.8023
vn 0.56968 0.0544 0.82006
vn -0.56968 0.0544 0.82007
vn 0.57403 -0.02922 0.81831
vn -0.57403 -0.02922 0.81831
vn 0.56863 -0.08911 0.81775
vn -0.56864 -0.08911 0.81774
vn 0.56869 -0.121 0.8136
vn 0.55321 -0.12794 0.82316
vn 0.30111 -0.35951 0.88323
vn 0.3648 -0.41983 0.83106
vn -0.5598 0.16656 0.81171
vn -0.59184 0.3238 0.73816
vn -0.52098 0.30119 0.79867
vn -0.30112 -0.3595 0.88322
vn -0.3648 -0.41984 0.83106
vn 0.50438 0.28432 0.81533
vn 0 0.34761 0.93764
vn 0.59183 0.32379 0.73817
vn 0.56028 0.14796 0.81498
vn 0.65912 0.18445 0.72907
vn -0.00449 0.44565 0.8952
vn 0.55921 0.05971 0.82687
vn 0.68667 0.07459 0.72313
vn -0.56556 -0.11204 0.81706
vn -0.69713 -0.13182 0.70473
vn -0.69286 -0.13429 0.70846
vn -0.55321 -0.12794 0.82316
vn -0.37545 -0.58033 0.72267
vn -0.56869 -0.121 0.81361
vn 0.56556 -0.11204 0.81706
vn -0.55921 0.05971 0.82687
vn 0.55704 -0.09956 0.8245
vn -0.55704 -0.09956 0.8245
vn -0.65912 0.18446 0.72907
vn 0.69713 -0.13182 0.70472
vn -0.5617 -0.03136 0.82675
vn -0.68667 0.07459 0.72313
vn 0.69359 -0.11987 0.71033
vn 0.69285 -0.13429 0.70846
vn -0.68255 -0.04046 0.72971
vn 0.68255 -0.04046 0.72971
vn -0.69359 -0.11987 0.71033
vn 0.5617 -0.03136 0.82675
vn -0.76894 -0.53671 0.34737
vn -0.963 0.2695 0
vn 0.98539 -0.17031 0
vn -0.99415 0.10798 0
vn 0.98173 -0.19028 0
vn -0.99825 -0.05918 0
vn 0.76894 -0.53671 0.34738
vn -0.98539 -0.17031 0
vn 0.99825 -0.05918 0
vn 0.51976 -0.62054 0.58718
vn -0.98173 -0.19028 0
vn 0.99415 0.10798 0
vn -0.51975 -0.62054 0.58719
vn -1E-05 1 0
vn 0.963 0.2695 0
vn 0.87729 0.47997 0
vn -0.87729 0.47997 0
vn 0 -1 0
vn 0 -1 0
vn 0 1 0
vt 0 0
usemtl mat1
f 17/2/17 18/2/18 19/2/19
f 20/2/20 21/2/21 22/2/22
f 21/2/21 23/2/23 22/2/22
f 24/2/24 23/2/23 25/2/25
f 26/2/26 27/2/27 24/2/24
f 28/2/28 29/2/29 26/2/26
f 30/2/30 31/2/31 28/2/28
f 19/2/19 32/2/32 30/2/30
f 33/2/33 34/2/34 35/2/35
f 36/2/36 37/2/37 38/2/38
f 39/2/39 35/2/35 40/2/40
f 41/2/41 42/2/42 43/2/43
f 44/2/44 45/2/45 41/2/41
f 42/2/42 38/2/38 43/2/43
f 46/2/46 47/2/47 44/2/44
f 48/2/48 49/2/49 50/2/50
f 24/2/24 44/2/44 46/2/46
f 51/2/51 50/2/50 18/2/18
f 32/2/32 50/2/50 48/2/48
f 25/2/25 41/2/41 44/2/44
f 20/2/20 38/2/38 43/2/43
f 17/2/17 40/2/40 51/2/51
f 17/2/17 34/2/34 35/2/35
f 23/2/23 38/2/38 22/2/22
f 30/2/30 34/2/34 19/2/19
f 27/2/27 37/2/37 23/2/23
f 28/2/28 52/2/52 30/2/30
f 29/2/29 53/2/53 27/2/27
f 26/2/26 54/2/54 28/2/28
f 20/2/20 41/2/41 21/2/21
f 29/2/29 55/2/55 56/2/56
f 26/2/26 46/2/46 57/2/57
f 31/2/31 48/2/48 55/2/55
f 58/2/58 53/2/53 37/2/37
f 59/2/59 52/2/52 34/2/34
f 60/2/60 56/2/56 53/2/53
f 52/2/52 61/2/61 54/2/54
f 62/2/62 55/2/55 56/2/56
f 54/2/54 63/2/63 57/2/57
f 64/2/64 48/2/48 55/2/55
f 50/2/50 39/2/39 40/2/40
f 57/2/57 65/2/65 46/2/46
f 66/2/66 39/2/39 49/2/49
f 67/2/67 60/2/60 58/2/58
f 68/2/68 63/2/63 61/2/61
f 69/2/69 62/2/62 60/2/60
f 70/2/70 61/2/61 71/2/71
f 72/2/72 64/2/64 62/2/62
f 73/2/73 71/2/71 59/2/59
f 74/2/74 75/2/75 64/2/64
f 76/2/76 65/2/65 63/2/63
f 77/2/77 59/2/59 33/2/33
f 78/2/78 49/2/49 75/2/75
f 79/2/79 47/2/47 65/2/65
f 80/2/80 33/2/33 39/2/39
f 81/2/81 36/2/36 42/2/42
f 82/2/82 45/2/45 47/2/47
f 83/2/83 42/2/42 45/2/45
f 84/2/84 58/2/58 36/2/36
f 80/2/80 73/2/73 77/2/77
f 85/2/85 73/2/73 66/2/66
f 86/2/86 87/2/87 88/2/88
f 89/2/89 90/2/90 91/2/91
f 91/2/91 92/2/92 93/2/93
f 92/2/92 94/2/94 93/2/93
f 95/2/95 96/2/96 94/2/94
f 97/2/97 98/2/98 96/2/96
f 99/2/99 100/2/100 98/2/98
f 100/2/100 86/2/86 88/2/88
f 101/2/101 102/2/102 103/2/103
f 104/2/104 105/2/105 106/2/106
f 103/2/103 107/2/107 108/2/108
f 109/2/109 110/2/110 111/2/111
f 112/2/112 111/2/111 113/2/113
f 106/2/106 110/2/110 114/2/114
f 115/2/115 113/2/113 116/2/116
f 117/2/117 118/2/118 119/2/119
f 94/2/94 112/2/112 93/2/93
f 120/2/120 121/2/121 86/2/86
f 122/2/122 120/2/120 86/2/86
f 93/2/93 109/2/109 91/2/91
f 89/2/89 106/2/106 90/2/90
f 108/2/108 87/2/87 121/2/121
f 87/2/87 101/2/101 88/2/88
f 106/2/106 92/2/92 90/2/90
f 101/2/101 100/2/100 88/2/88
f 104/2/104 95/2/95 92/2/92
f 123/2/123 98/2/98 100/2/100
f 124/2/124 97/2/97 95/2/95
f 125/2/125 96/2/96 98/2/98
f 109/2/109 89/2/89 91/2/91
f 97/2/97 126/2/126 99/2/99
f 96/2/96 115/2/115 94/2/94
f 99/2/99 117/2/117 122/2/122
f 124/2/124 127/2/127 104/2/104
f 123/2/123 128/2/128 101/2/101
f 129/2/129 130/2/130 124/2/124
f 123/2/123 131/2/131 132/2/132
f 126/2/126 133/2/133 129/2/129
f 125/2/125 134/2/134 131/2/131
f 117/2/117 135/2/135 126/2/126
f 120/2/120 107/2/107 118/2/118
f 136/2/136 116/2/116 134/2/134
f 107/2/107 137/2/137 118/2/118
f 130/2/130 138/2/138 127/2/127
f 134/2/134 139/2/139 131/2/131
f 133/2/133 140/2/140 130/2/130
f 131/2/131 141/2/141 132/2/132
f 135/2/135 142/2/142 133/2/133
f 132/2/132 143/2/143 128/2/128
f 119/2/119 144/2/144 135/2/135
f 116/2/116 145/2/145 134/2/134
f 128/2/128 146/2/146 102/2/102
f 118/2/118 147/2/147 119/2/119
f 113/2/113 148/2/148 116/2/116
f 102/2/102 149/2/149 107/2/107
f 105/2/105 150/2/150 110/2/110
f 111/2/111 151/2/151 113/2/113
f 110/2/110 152/2/152 111/2/111
f 127/2/127 153/2/153 105/2/105
f 146/2/146 137/2/137 149/2/149
f 143/2/143 154/2/154 137/2/137
f 73/2/73 155/2/155 143/2/143
f 78/2/78 144/2/144 147/2/147
f 79/2/79 145/2/145 148/2/148
f 85/2/85 137/2/137 154/2/154
f 76/2/76 139/2/139 145/2/145
f 66/2/66 147/2/147 137/2/137
f 82/2/82 148/2/148 151/2/151
f 68/2/68 141/2/141 139/2/139
f 84/2/84 150/2/150 153/2/153
f 83/2/83 151/2/151 152/2/152
f 70/2/70 143/2/143 141/2/141
f 67/2/67 153/2/153 138/2/138
f 69/2/69 138/2/138 140/2/140
f 72/2/72 140/2/140 142/2/142
f 81/2/81 152/2/152 150/2/150
f 156/2/156 154/2/154 155/2/155
f 74/2/74 142/2/142 144/2/144
f 17/2/17 51/2/51 18/2/18
f 21/2/21 25/2/25 23/2/23
f 24/2/24 27/2/27 23/2/23
f 26/2/26 29/2/29 27/2/27
f 28/2/28 31/2/31 29/2/29
f 30/2/30 32/2/32 31/2/31
f 19/2/19 18/2/18 32/2/32
f 33/2/33 59/2/59 34/2/34
f 36/2/36 58/2/58 37/2/37
f 39/2/39 33/2/33 35/2/35
f 41/2/41 45/2/45 42/2/42
f 44/2/44 47/2/47 45/2/45
f 42/2/42 36/2/36 38/2/38
f 46/2/46 65/2/65 47/2/47
f 48/2/48 75/2/75 49/2/49
f 24/2/24 25/2/25 44/2/44
f 51/2/51 40/2/40 50/2/50
f 32/2/32 18/2/18 50/2/50
f 25/2/25 21/2/21 41/2/41
f 20/2/20 22/2/22 38/2/38
f 17/2/17 35/2/35 40/2/40
f 17/2/17 19/2/19 34/2/34
f 23/2/23 37/2/37 38/2/38
f 30/2/30 52/2/52 34/2/34
f 27/2/27 53/2/53 37/2/37
f 28/2/28 54/2/54 52/2/52
f 29/2/29 56/2/56 53/2/53
f 26/2/26 57/2/57 54/2/54
f 20/2/20 43/2/43 41/2/41
f 29/2/29 31/2/31 55/2/55
f 26/2/26 24/2/24 46/2/46
f 31/2/31 32/2/32 48/2/48
f 58/2/58 60/2/60 53/2/53
f 59/2/59 71/2/71 52/2/52
f 60/2/60 62/2/62 56/2/56
f 52/2/52 71/2/71 61/2/61
f 62/2/62 64/2/64 55/2/55
f 54/2/54 61/2/61 63/2/63
f 64/2/64 75/2/75 48/2/48
f 50/2/50 49/2/49 39/2/39
f 57/2/57 63/2/63 65/2/65
f 66/2/66 80/2/80 39/2/39
f 67/2/67 69/2/69 60/2/60
f 68/2/68 76/2/76 63/2/63
f 69/2/69 72/2/72 62/2/62
f 70/2/70 68/2/68 61/2/61
f 72/2/72 74/2/74 64/2/64
f 73/2/73 70/2/70 71/2/71
f 74/2/74 78/2/78 75/2/75
f 76/2/76 79/2/79 65/2/65
f 77/2/77 73/2/73 59/2/59
f 78/2/78 66/2/66 49/2/49
f 79/2/79 82/2/82 47/2/47
f 80/2/80 77/2/77 33/2/33
f 81/2/81 84/2/84 36/2/36
f 82/2/82 83/2/83 45/2/45
f 83/2/83 81/2/81 42/2/42
f 84/2/84 67/2/67 58/2/58
f 80/2/80 66/2/66 73/2/73
f 85/2/85 156/2/156 73/2/73
f 86/2/86 121/2/121 87/2/87
f 91/2/91 90/2/90 92/2/92
f 92/2/92 95/2/95 94/2/94
f 95/2/95 97/2/97 96/2/96
f 97/2/97 99/2/99 98/2/98
f 99/2/99 122/2/122 100/2/100
f 100/2/100 122/2/122 86/2/86
f 101/2/101 128/2/128 102/2/102
f 104/2/104 127/2/127 105/2/105
f 103/2/103 102/2/102 107/2/107
f 109/2/109 114/2/114 110/2/110
f 112/2/112 109/2/109 111/2/111
f 106/2/106 105/2/105 110/2/110
f 115/2/115 112/2/112 113/2/113
f 117/2/117 120/2/120 118/2/118
f 94/2/94 115/2/115 112/2/112
f 120/2/120 108/2/108 121/2/121
f 122/2/122 117/2/117 120/2/120
f 93/2/93 112/2/112 109/2/109
f 89/2/89 114/2/114 106/2/106
f 108/2/108 103/2/103 87/2/87
f 87/2/87 103/2/103 101/2/101
f 106/2/106 104/2/104 92/2/92
f 101/2/101 123/2/123 100/2/100
f 104/2/104 124/2/124 95/2/95
f 123/2/123 125/2/125 98/2/98
f 124/2/124 129/2/129 97/2/97
f 125/2/125 136/2/136 96/2/96
f 109/2/109 114/2/114 89/2/89
f 97/2/97 129/2/129 126/2/126
f 96/2/96 136/2/136 115/2/115
f 99/2/99 126/2/126 117/2/117
f 124/2/124 130/2/130 127/2/127
f 123/2/123 132/2/132 128/2/128
f 129/2/129 133/2/133 130/2/130
f 123/2/123 125/2/125 131/2/131
f 126/2/126 135/2/135 133/2/133
f 125/2/125 136/2/136 134/2/134
f 117/2/117 119/2/119 135/2/135
f 120/2/120 108/2/108 107/2/107
f 136/2/136 115/2/115 116/2/116
f 107/2/107 149/2/149 137/2/137
f 130/2/130 140/2/140 138/2/138
f 134/2/134 145/2/145 139/2/139
f 133/2/133 142/2/142 140/2/140
f 131/2/131 139/2/139 141/2/141
f 135/2/135 144/2/144 142/2/142
f 132/2/132 141/2/141 143/2/143
f 119/2/119 147/2/147 144/2/144
f 116/2/116 148/2/148 145/2/145
f 128/2/128 143/2/143 146/2/146
f 118/2/118 137/2/137 147/2/147
f 113/2/113 151/2/151 148/2/148
f 102/2/102 146/2/146 149/2/149
f 105/2/105 153/2/153 150/2/150
f 111/2/111 152/2/152 151/2/151
f 110/2/110 150/2/150 152/2/152
f 127/2/127 138/2/138 153/2/153
f 146/2/146 143/2/143 137/2/137
f 143/2/143 155/2/155 154/2/154
f 73/2/73 156/2/156 155/2/155
f 78/2/78 74/2/74 144/2/144
f 79/2/79 76/2/76 145/2/145
f 85/2/85 66/2/66 137/2/137
f 76/2/76 68/2/68 139/2/139
f 66/2/66 78/2/78 147/2/147
f 82/2/82 79/2/79 148/2/148
f 68/2/68 70/2/70 141/2/141
f 84/2/84 81/2/81 150/2/150
f 83/2/83 82/2/82 151/2/151
f 70/2/70 73/2/73 143/2/143
f 67/2/67 84/2/84 153/2/153
f 69/2/69 67/2/67 138/2/138
f 72/2/72 69/2/69 140/2/140
f 81/2/81 83/2/83 152/2/152
f 156/2/156 85/2/85 154/2/154
f 74/2/74 72/2/72 142/2/142
# Vertices: 140, normals: 140, texture coordinates: 1, faces: 276

o obj3
v 2.88872433 2.01406431 0.01071596
v 2.32427597 1.68769944 0.52108383
v 2.52872944 1.44425464 0.26391006
v 2.28894138 1.28358257 0.47631955
v 0.96478462 -0.68300629 1.43348885
v 1.01141071 -0.73852491 1.37483978
v 2.84883022 2.02188611 -0.0284059
v 2.28437996 1.69552135 0.4819622
v 2.6443758 2.26533079 0.22876859
v 2.4384222 1.4116956 0.27538967
v 2.20241928 1.34692252 0.49584699
v 1.14126778 -0.45436096 1.22512245
v 2.23342705 1.27433741 0.45697832
v 2.24231529 1.3391006 0.53496861
v 0.92488861 -0.67518473 1.39436722
v 2.68427277 2.25750875 0.26788998
v -2.84984899 2.01406431 0.01071596
v -2.28540063 1.68769944 0.52108383
v -2.64539742 2.25750875 0.26788998
v -2.25006604 1.28358257 0.47631955
v -2.4898541 1.44425464 0.26391006
v -0.92590904 -0.68300629 1.43348885
v -2.20343995 1.3391006 0.53496861
v -2.80995488 2.02188611 -0.0284059
v -2.24550462 1.69552135 0.4819622
v -2.39954686 1.4116956 0.27538967
v -2.16354394 1.34692252 0.49584699
v -2.19455171 1.27433741 0.45697832
v -1.1023922 -0.45436096 1.22512245
v -2.60550046 2.26533079 0.22876859
v -0.97253513 -0.73852491 1.37483978
v -0.88601303 -0.67518473 1.39436722
vn 0.9856 0.03315 -0.16582
vn 0.01536 0.21 0.97758
vn 0.72638 -0.66883 -0.15823
vn 0.74811 -0.6334 0.19782
vn -0.16909 -0.19323 0.96647
vn 0.2568 -0.96146 -0.0982
vn 0.1681 0.19177 -0.96694
vn -0.9188 0.3903 0.05894
vn -0.40825 0.88069 -0.24023
vn -0.27087 -0.53064 -0.80315
vn -0.9316 0.34946 -0.09997
vn -0.20666 -0.29316 -0.93346
vn -0.28427 -0.34357 -0.89507
vn 0.1498 0.15425 0.97661
vn -0.99345 -0.11404 -0.0065
vn 0.40826 0.72061 0.5604
vn -0.9856 0.03315 -0.16582
vn -0.01536 0.21 0.97758
vn -0.40826 0.72061 0.5604
vn -0.74811 -0.6334 0.19782
vn -0.72638 -0.66883 -0.15823
vn 0.1691 -0.19323 0.96647
vn -0.1498 0.15425 0.97661
vn -0.1681 0.19177 -0.96694
vn 0.9188 0.3903 0.05894
vn 0.27087 -0.53064 -0.80315
vn 0.9316 0.34946 -0.09997
vn 0.28427 -0.34357 -0.89507
vn 0.20666 -0.29316 -0.93346
vn 0.40825 0.88069 -0.24023
vn -0.2568 -0.96146 -0.0982
vn 0.99345 -0.11405 -0.00651
vt 0 0
vt 1 1
vt 1 0
vt 0 1
usemtl mat2
f 157/3/157 158/4/158 159/5/159
f 158/6/158 160/5/160 159/3/159
f 160/3/160 161/4/161 162/5/162
f 163/3/163 164/4/164 165/5/165
f 166/3/166 167/4/167 164/5/164
f 168/6/168 167/5/167 169/3/169
f 170/3/170 171/4/171 161/5/161
f 160/3/160 166/4/166 159/5/159
f 165/6/165 158/5/158 172/3/172
f 159/3/159 163/4/163 157/5/157
f 168/6/168 160/5/160 162/3/162
f 171/6/171 162/5/162 161/3/161
f 158/3/158 167/4/167 170/5/170
f 157/3/157 165/4/165 172/5/172
f 173/3/173 174/4/174 175/5/175
f 176/6/176 174/5/174 177/3/177
f 176/3/176 178/4/178 179/5/179
f 180/3/180 181/4/181 182/5/182
f 182/3/182 183/4/183 184/5/184
f 183/6/183 185/5/185 184/3/184
f 178/6/178 183/5/183 179/3/179
f 176/3/176 182/4/182 184/5/184
f 174/6/174 186/5/186 175/3/175
f 177/3/177 180/4/180 182/5/182
f 176/6/176 185/5/185 187/3/187
f 187/6/187 188/5/188 178/3/178
f 174/3/174 183/4/183 181/5/181
f 173/3/173 186/4/186 180/5/180
f 157/3/157 172/6/172 158/4/158
f 158/6/158 170/4/170 160/5/160
f 160/3/160 170/6/170 161/4/161
f 163/3/163 166/6/166 164/4/164
f 166/3/166 169/6/169 167/4/167
f 168/6/168 171/4/171 167/5/167
f 170/3/170 167/6/167 171/4/171
f 160/3/160 169/6/169 166/4/166
f 165/6/165 164/4/164 158/5/158
f 159/3/159 166/6/166 163/4/163
f 168/6/168 169/4/169 160/5/160
f 171/6/171 168/4/168 162/5/162
f 158/3/158 164/6/164 167/4/167
f 157/3/157 163/6/163 165/4/165
f 173/3/173 177/6/177 174/4/174
f 176/6/176 179/4/179 174/5/174
f 176/3/176 187/6/187 178/4/178
f 180/3/180 186/6/186 181/4/181
f 182/3/182 181/6/181 183/4/183
f 183/6/183 188/4/188 185/5/185
f 178/6/178 188/4/188 183/5/183
f 176/3/176 177/6/177 182/4/182
f 174/6/174 181/4/181 186/5/186
f 177/3/177 173/6/173 180/4/180
f 176/6/176 184/4/184 185/5/185
f 187/6/187 185/4/185 188/5/188
f 174/3/174 179/6/179 183/4/183
f 173/3/173 175/6/175 186/4/186
# Vertices: 32, normals: 32, texture coordinates: 4, faces: 56

